<mxfile host="app.diagrams.net" modified="2023-06-27T07:45:52.995Z" agent="Mozilla/5.0 (Windows NT 10.0; Win64; x64) AppleWebKit/537.36 (KHTML, like Gecko) Chrome/114.0.0.0 Safari/537.36" etag="6kR8SEDPtGDOVkpcUBU8" version="21.5.0" type="device">
  <diagram name="PÃ¡gina-1" id="8hqUMknkwy9Ylt3c8WaU">
    <mxGraphModel dx="600" dy="273" grid="1" gridSize="10" guides="1" tooltips="1" connect="1" arrows="1" fold="1" page="1" pageScale="1" pageWidth="827" pageHeight="1169" math="0" shadow="0">
      <root>
        <mxCell id="0" />
        <mxCell id="1" parent="0" />
        <mxCell id="Uw7kk-ShV-zIjp3tt1pE-3" value="" style="rounded=0;whiteSpace=wrap;html=1;" vertex="1" parent="1">
          <mxGeometry x="342.77" y="190" width="387.23" height="240" as="geometry" />
        </mxCell>
        <mxCell id="Uw7kk-ShV-zIjp3tt1pE-2" value="" style="shape=image;verticalLabelPosition=bottom;labelBackgroundColor=default;verticalAlign=top;aspect=fixed;imageAspect=0;image=data:image/jpeg,/9j/4AAQSkZJRgABAQAAAQABAAD/2wCEAAkGBxAQEBUQEA8VFRUVDxAQFQ8VFRgVFRUVFRUXFhUVFRUYHSggGBolGxUVITEhJSkrLi4uGB8zOjMsNygtLisBCgoKDg0OGhAQGy0lICYtLS0tLS0tLS0tLS0tLS0vLS0tLS0tLS0tLS0tLS0tLS0tLS0tLS0tLS0tLS0tLS0tLf/AABEIAMMBAgMBIgACEQEDEQH/xAAcAAEAAgMBAQEAAAAAAAAAAAAAAQUEBgcCAwj/xABIEAABAwICBAkHCgUEAgMBAAABAAIDERIEIQUTMUEGFCJRUlORodEyVGFicYGSFRYjJEJzorGy4Qc0Y3LBM4LC8HSDQ7PiNf/EABoBAQEAAwEBAAAAAAAAAAAAAAABAgQFAwb/xAA/EQACAAIFCQUFBQgDAAAAAAAAAQIRAwQhMVESFBVBYYGRodEFUlNx0hMyscHwIpKi4eIWMzRCQ2JyggYksv/aAAwDAQACEQMRAD8A7iiIgCKFKAIiIAiIgCIiAIiIAiIgCIiAIiIAiIgCIiAIiIAiIgCIiAIiIAiIgCIiAIiIAiIgCIiAIiIAiIgCIiAIiIAiIgChSiAIiIAoUogCIiAIiIAiIgCIiAIiIAiIgPnLI1oq5waOcmg7V8xjItutZ8Q8ViaeaDEA4VF4NPYCf8LFwuhy5t0khBIBDGgUbzA5VJ7FGzFTm8OZZ/KEPXR/EPFSMdEdkrD7HN8VoHCTABs0belIY3U2moqCPTQHuU8Gw4h8YFS15qLmigDW1Jqcj6FZ2TNWGnpPbuiihUtTn8t+038YyI//ACs+IeKcbi6xnN5Q8VoeiJHSOkaxheRPJsLeS0Uq43EZegZqNCvdIZAxpdSaU5Foo1tKk1I5xksco94Y25WXz5G/cai6xnxBBi4+sZ8QWgaFe6TWBjC+k0pJBaA1rbKk1I59gqVGg3uluaxpcRLKTQgBrW21JJI6QyGamWWGNvJsvnyOgjFR9Y34ggxUfWN+ILnuhLpGOtYXBsr6kFvJbUZmpHPuqmgrpWOtbW18hJBFA0EZmp9O6qZWwQRuLJsv/I6CMTHukb8QUjEs6bfiC55oC6WM2tuoZHF1RQNBHOfTuXnQjnPiBbG54Dn3OFtGC7IuqQd+6qZZII3Fk2Xrp1OjDEM6bfiCgYhnTb8QXOuDpdLAHBtQ28udlQC402mp91fyXng+90kDXNYXBokLn8mjRc6lamp9wKZZKOkceRNXqfl7vU6QJ2dNvaEE7Om3tC5toF7n4djhG5zQHF8gttZV7g26pqa03A030TQJdJhWvDCQ1ji5/Jo3lvArU1OzcCrlCjpXHkWe9Dlf+bPxcjpInZ029oU61nSHaFzTQ5c/DB4YS1rHF0nJtby3AVqa7twKjRhc7CiSwlrYzdJla01cADnXduCmXsEFI4smy9T+FnM6ZrW9IdoTXM6Te0LmeBLnYQS2G0RurJybQc8jnXduFFU4HCxva1zpKVhD7S8ZuJpmdwAAJGZzWULmeFLWY4VBkwp5SnfKV2zbsOxa1nSb2hTrG9IdoXBnPI3O7VEslor7N6zkjRXbET/pr7z9J3rWN6Q7Ql7ecdq4A3FVzub8acY9dvxrGwy0rH4a+9+k/QF45x2pcOcdq4AMT67fjUHE+u340sGlY/DX3v0n6AuHOO1Lhzhfn/jPrt+NRxn12/Gk0XSsfh/i/SfoKo5wlfSvz8MQefLZUOqK8xWVg6vlYyvlOpt3AEnuBRtIyh7TjiiUKo7Xd9r9J3eoQLTdH8G3yxB4kEYI5Lbbsuc5heuDuEdDjHMfS4RvrTYRVpB7FgongdVzs+uFlvI3FERZlKXhRiTFBeBWkjRTnBBBVPDwzhYwAvFQKAODrveAM/crLhr/ACv/ALB+TlzSqyUEzj12v0lWppJJqVz3n04Qad4xLXINbUi/Ilztri3dlkB6VGBxuEABdKGOLaPLHvZXyqDk1qMmmu67Ydo0jhnA1uIaRtdBG53pdmK+8AFa8Yift09FtUlKw2MzbpPaxRTi8rvK2z6xOs4bE4NtQyayuTi1z21AeNlpNasccjsLV6w+LwkbnauWgNAOW4NIucM9+y0156rkRjd1v4VGqd1v4UnsMlU5Sk1Z/b+dm467hcRhGmQ8Ysuc+gDy2oytrTbtdtofS1fPR2JwjA6s1KvpRry0llWjc6laFxz5vceTGE9b+FRqT1n4UIqnkyk1ZOVmO86pBicM10wZiLGUpGL6XZ0F1p20zz51GicTh2seH4i2tAA19tcjtAcRStoO+laLlmoPWfhTUHrPwpuJDUVC01FdPVjv3KR1XR+KwjXPacSGxl7QA19pLOV0d/k1qNlVGisVhmttfiwy4kOa15AcOTbUNJy8r05Ddt5XqD1n4VHFz1n4VCw1NQy+1dPVjv8AgdU0ZisKGWuxQYC+ha2SlW8naGmhyv5jUDdko0fi8M2IMdirCb7mtdk40dS4VoBk3Zt2HnHLDh3dP8KcXPWfhTcWGqZMpRXKV2Mp69my86porFYURFkmKsuLgWh5AOTaXNaSCM3naCbab00bicJqS2TFhtS6rGuyOzymg0pSu/cAuVGH+p+FedV/V/Cm4Q1PJlKK5Sux3/A6rgMZhhCGvxFKk3RskAqBTKmYzzHtpXJY0GLj1EjDiw3yS2IPFrjXlVA9HeuZ6n+p3Lzqv6nckthjmNiWVcpXapSx/Keo6hBjIuLvZxkA3CkV3JIyrUA058t+fvweOjrI/wDv+5c+1J6zuTVHre5DCPs2GJJOK5SuN/48Osj7P/0nHR1kfZ+60DUnrPwpqT1nchjouDvckb9xxvTj7P3QYxvTj7P3Wg6g9Z3KdQes/CpIaLg7z4I37jY6cfZ+6jjY6cfZ+60PUO6zuTUu6zuSRdGQd7kjfONDpx9n7qONDpR9n7rRDE7rO5RqHdZ+FJDRkHe5G9a1pNbo9lCNgd6DmvrhsXY5jmuaS14c2pG7Isd7QSKrQBCemD6KUXvDjltFactor7wpIyXZyTTUbs2H6E0Lw5hZEGOc3LY2R4je31TUZ+0LJ4NaaGKx7iCD9E6rhsyLQA3n9q5RBiRaAcyGgZ+jJbv/AAukrjT9w/8ANqxStJBXKWKkho2krZNnWERFmdM17hv/AC3+/wD4uXNN/vXSuHH8r/7B+RXMi4VA969Ibj5rti2n/wBeprHDWD6w3/x4D+Ba7ZzAn2BbLwyeHYhtDsw+HafQQwEjvVKwcntW/wBnVOCs0/s4m0pN2X2S88eR2qaldHBNGA6J3RPd4oIHdE93irOKFzyGsaXONaNaCSd+QHoC+2kMG6CV0TyC5ttSK05TQ4UqBucF29A1WeTlxT84fTtNXPo8EU2od0T3eKji7uie7xWwYfRbnMMjpI4xQuaJHFhkABqY8uVmKe0hfEYF2pM9RaJWw0zrcWlw3UpQHepoKqd+K+X8t/3Rn0eC+t5UCE9A93ip1J6Du7xV1FoyR0TZWiodPxdrBUvL7Q4ACme0Dnqsr5CcRyZ4XPp/LtcTKXZVYGW+UKnL1TzLF9iVNXxxcYfSTP48FwfU1rVu6Du7xTVHoHu8VsOD0S6QXOkjibWjXSksa8g0cGGhqRlXmqvTNByOmbE1zSH3FkwuMb7G3OtdTOmYOW1IuxanDOccVl9sOr/TC3FK/XKZ/HgufU1zVHqz3eK8vidTyD3eKsaApQL1/Z6r96P8PpLnseC59Sr1Lurd3eKah3Qd3eKtLVIAU/Z6r96PjD6Rn8eC59Sq4u7oO7vFOLu6t3aPFW1o51NoU/Z6rd6L8PpGfx4Ln1Kni7ur/LxTi7ug7u8VagVWTidHFkUUpIpKH2gVqLHBpru2nco+wKsmk4o7f8cJ93BMKvx4Ln1KHUHoHu8V61Luge7xVkWhQAOdZfs9Vu9Hxh9Iz6PBc+pXap3QPd4qdU7onu8VYWjnWX8nnUcYqLddqbc61svrXZSnvR9gVWG+KP8AD6Bn0eCKTUu6J/Cp1DuifwqyhhL3BjAS5xDWtG0k5ABWp0HUUZiInS7Bhm3awvyBjpbS4Ekf7SsIuw6pDfHF+H0WLa7A69HguH5mrnDu6P6fFeTA7mWwu0PLxfjABLQ97XgA8iygJcdlKuAXnSGhpII2SSgtMl9GkEEW0NTuzDgckXYlSbl7SK+V8N6v/k+t5c+j1pfW810xkbQvLW0e2nSb+YVixn6SsAeU3+4fmuV2tUKOpxwqjbaad8tXkl8DcoKV0iczYI35kczj+a3v+EJPHXV6l/ZULRyMz7St4/hH/PH7l/8AhcV3mjB++Xn8zsqIizOua7w4/lf94/SVzCR4AJOQAzK6Xw8P1YfeD8iuZzMDgQd43f4XpBcfM9ry9uk8F8zTdNGuIlr10v6yvjDs7V9dLmuIlP8AXl/WV8ovJ7V2ewv4p/4v4wnXr37vf1JbIWkFri0jY4GhG7IhWvCYVx8g9aMU/wBjfQPyVfhJpI5A+I0eK0NAdoIORy2Er7aZxOIfJZiTV8dW0ozKuZzZkV9VJ+1hdlzV9trh1StlLHWcxF3pw4V2JfAYpL9YYmkSARsc40BbHbk2rmkgUrQ86wsLhXQOmEjgYWOlgcSKh7x9mMHyJC0GjyMl4wuJxzsO4McNS2NzCDqmmy1xdS7lOyc7MV7VgETcX/omf1f9UM+LyfcvCjomocjKVklfN+dq+y3hbfOc1bNhnaWLrWSxO+hAa1hZVoY9ora7ZdK1pFX0zXqA8TpM8/Tmj42H7FaFsj61D2uBOVarGgfio4Y3s/0xiHOjoGk61oFTTbsptyVxJi9KMZrDIygDTlqXGhspyRUn7G7/ACkc0lBOGU2vek3suf8AtK13YzMwdJu+o4UnfNiz3x+hfbgtDIMRC9wNjmYkxkmoIax4faM6Z+hY+gW4wXuwxDa23FxjAPlUprNu/YjWYzjZNRrqOJfWO0gR0dQ+QeRll+aUlsMdEnDdE77VObtUrEp2ub8rbGozNG4hmJLsOIg2FsMsjBQa0FjS5t0obV3KJ91AmiGmGOsssMYkpIwSwa4vbQi5pFbRWopz5qgwmJfES6N1CWOYTQHkuFCM/QsrAaWnw7S2GSgc64i1pqaU2uB3LKkq7+0oZScr9825wxWuydjmGjZ24SBkz3Foka/Rk2JeW8kPLnGrowW/RggZdGqocTpZsjDG6FtgB1Noa17SMmGR4FZKN2jKpzXwn01iHuL3SVc6J0BNrRWNxJLaAc5Oe1YAClFV2raS12a8OHHZhYSRtWinnDxhss8ERd9KGS4fWuLH2lr7hXIgVA3UPOvriMBFh5MTLGKmCDDzMu5TbpbbiWkUI5RoDsVDgdNYmBtkUlrbi6lrTmSCTUg9Edi8P0pOZhiDJ9IKUfa3KgtGVKbPQvN1aky4m5W4a7U5SyVg1bFFKfGI+2MxU+KYZDGy2GlzmMaymsIaK021Lfz51Z6c0jI/BYYEMGt111GNGccrQ22g5PpptVLpDSc2It10l9lbeS0UupXyQOiOxfbDT4nCxtkjeGtnDqUDXF1hLTUEEt8o9qziobIbIU07Fqudk5TvnF7uqW0qLLQ2AELZ3zOEcsLo47nt1rW6wOqCwVBJyAO5fXSM2Hlsdr45ZhiImt1cJhaI7iXAtpRxrQ1PPRa3g8XJC4Pida4AtBoDkRQ5EU2L7Y3Ss872ySyXOb5JoBTO7cOdM3j9plt/LUrLm5N2+/c7nrSLnTulWw4maGOEBhmeJWm1xfVxDrCW/RVbkANhzWLO5p0c8tba06Rq1pNbQYjQF1MyBv7lT4mZ8j3SPdVznFznUpUnacslY4DF4uCAyQy2xmaw+SSXlldhBNKDar7H2cEOTKdl7dsuO6xyLJHw4P8A81D9/F+oLzjInvxcjI83uxMjWgGnKL3AZ5U7lON0ricSAySQvAdUNtAzpT7Iz2q0mj0hxa0zsMepA1IfGX2UbRloF1aUFNuSzjiihaibhTdl74r7NvlJeYuZOHxfF8Nh5HMusx0t0dRyqNZUE0O/2rF0i+7BYd3PNifTkS2grRYckGI4s0n/AERK+jcqtfQXEgCoFKDPJRPBiBBFeaRax+raaAh2ReaUrQ5bVFRqc5r3n8IrPO27DXYWSv8ArWY8cWTv7XfpVKDym/3D81sUPkn+x/6Vr32m+0fmvnf+QudJB5P5G/2c5qPcdOwGiYpzBJI1pDWEPa4VDgWEA03kGn/Qtw4LYWCLSDWwWW6qajmgNJHIpc0bN61nRJ+iZ/YFsHAzDQtx5LBa7Uklojc2twz5Z5LufLML52OG1M3VDOxJXzOkIiKnsazw+P1Yfej8iuaHwXSuH/8ALN+9H5Fc12lekFx8x2v+/wBy+ZpOlT9PL99L+sr5w7PiVjwmw7Y56N2GKCT3vja5x7SVWMOS7XYa/wC01/a/jCdiu20e/qZWBxD45WuY4tddbcNtHckjsJCsdNtD9JPBzBxYaRzgvAI2/wCVWYPFGJ4eGscQDk9tzcxtpzjcvppHST55NaWsa7M3Ri2puLria1JqdvoC+pcEXtcpKyTU7JzmpbbDmSLvS8OFlnMDZJtY17sNFGWsETDe4MYHXEiMOO3M0JWHgI3NEkU9NSx0lxJyEjSGudBWgfNbsadxKxjp19tNVDdSmvsOuu6zWVrfXO7bVYsuPe6LUkgt1zprjW4ucLTU1zXnBRRqBQO6zXbta+vzSZZ6SxEsTmGMhkbLHxOjJLL7RV12zW0pcAcimj3cUIxT/wDVqTHCcjU5OMwyc0Fr6tI2+xYUOlXtZHHZG5sT3SNa5twcXUqHivKGQyWbJwle83Pw2GcaAXOhqaAADMu5gFHBHLIybLZ2ymp2X43vzseskhpU/UsIPTi/1sWTwWfKZ4hIX2Nw+K1da0tMb7rNlRWu/aqvA6XfE20sjkb9lszdYGba6sE8mpNTTbQcy9s03KJdaLQbXsbGAdWxr2lrgxleSMyct+asdHG6OKjstyrf8pv5hpyLHCtw84fDHEGtjglmbPSkz9W0uAfmW51zpzBToPC0jJfHheU65pxL3RuLaZFg3srv56qkwONfCXFlOXFJCaivJeKGme1ZWD00+Ntpjilpk0zM1ha2mTGknkt305yUjoorVDdZrc9uv5+WBGmbAzREDJpNYAWO0e/FGyjhGXOz1GYqAK2k+hUuJxmHkYWakR2j6ORjeVIRQDXVdQAipNu88yifhBK9znWxi7DHC2taQ0R1rRorkf8AtFVBSioY76RudmvXr6WzIbToXDWxC+HB1qXfWXujkIJbQkdGmw7xVJtERQSYh9NYMPHh5RG+ljzNaCHUzoL8qcwVXhdOPa0NdFDLTY+aPWPplRtxPkgCgG4ErzLpyV0xmcGG4MDoqHVPDGhrQ5leUBQHPeKrz9lS5Tep4O+1OXCa38EiMdiNcA6PCsjazy3RNdTlUDbya0zBp7SrXT2Na/BYYDDxtvE1tt30dsoqI6k0u3qpx+lnyi2yONu9sLdWH7CLwDyqEZV2VKjA6WfE22yOQfZErb7K1rq6nk1JqabwF6RULeTEl7rnKbwevzt3SxKiw0FosWSySNYHxOazVYjkR8sOrfvDhQU9KytJ4GAhj64Zr9fFHqcM8PY5jnG5zgTdXIDLKlFRYbSkrHFxOsu8tstXteaUDngnlEVyJ2JjNJmR7ZNVEwszAiZY08q7lAHPwUdFSOkym+D2Xb3PbbiSTLbS8+FgnlhZh2uaZXte5zRdHmWkQUdSgFCLt6+M1vydJqy6z5QFt3lW6o0LgDStFTY7FOmlfK+lz3l5pkKnbQcyzNH6ZfDGYhHE9pfrCJGX8q22oz5lkqGKGCGVrWTObwv36vIsj46CP1qH7+H9YXvHukGNkMV2s41JZbW+7WGltM61UY3S7pAKRQxlrw8Phj1bqgGnKB2Z19oC9nTsllohhDraa8R0mr09ZWt9c7ttV6SjnlS1SlPb5cjKTtZbYPGmLCMMt5YcfKJ48+W21hcxzSRXMDI02LH0tinS4OF7nOP1mdrbiSQ0Nba3blQUHuVNLj3uiEJoWiV01c7i4ihqary/HPMLYTS1j3yDLOrgAanmyWCq32lFK3Knut52hQfXE9RSZO/td+lULto9oVox/wCSqyNntC+e/wCRKUdG9kXxR0qhDJRbjrOh/wDRj/satk4HMhdjhK0UfqpI3EtILqAUoTtbQbVpuisewmDCjMvjN5qRaBGSBUbzQe5bfwW0ZBh9IsELWU1Uo1kbS0OFoPkkmlCSPcvm44rUjaV09v1qOkoiKnsat/EE/V2/e/8AErm4OY9oXR/4hfy7fvP+JXNg3lA+kL0guPmO1v4jcjW+GB+sD/x8L/8ASxUbZaLP4VuHGKB1SIMMD7dSz9lQujPWO9mS9aKsUlDHl0bkz6JwQxKURn670BRrvVCriw9Y7uTVnrHdy2tK1zxHwXQwzai7pYGb1Qo13oCr9UesPcp1R6w9yaWrviPguhc3o8DP1/qhOMeqFX6l3WHuUak9Ye5TS1d8R8F0Gb0WBY8Z9UKeNeqFWak9Ye5NSeme5NLV3xHwXQmbUXdRZ8b9VON+r3qs1B6Z7lGpPTPcmlq74j4Q9BmtFgWnHfV70476veqrUnpnuU6g9M9yaWrvicofSTNaHulpx31e9OPep3qq1B6ZXkwnplNLV3xHwh9IzWhwLfj3qd6jj/q96qdSemVOoPTKmlq74j4Q+kZrQ9349S0496venHvV71V6g9IqDAemVdL13xHwh9Jc1oe6WnHvV70496veqrUeuU1Prppeu+I+EPpGa0Xd+PUtOOer3pxz1e9Veo9dSIPXTTFd8R8IfSM1ou78epZ8b9XvUHGer3qs1B6XeFOoPT7wrpiu+Jyh9IzaiwLDjNdy+Djs9oXxhhFeU80odlDnTL3VXttKgV+0PzWrWK3TVlp0sU5XXfJI9IKOGD3S+IFdlc1vf8InfXwP6b/0laKRQkV2Eiq3n+Ef/wDQH3b/ANC1Hec/+qvP5nbkRFkdQ1T+IZ+rM+8/4lc8kwswF3F5SNtQ3/Fa9y6jwopq2uIraXOHtt/dfbDaEjDAHkufTN4JGfqjZRMp3I51P2dBT0rjjbuSSX19bz896T4PRSVli31q01Of5j2LWpMDQkFgBBpQ18V1/hXgmxYoW/bEjXU2F0ZFH+0h1PcqDEYRr9rQfcqlNTRpxVqlqtK6ON5S1YnOnYan2W9/ivlLHaK2A+yvit7k0PGfshfE6EZzKGwu06N6maMK7dWO/wAUz6sd/it6+R28y8fJDUmXSVGaRn1Y7/FM+rHf4rdhogIdEN5kmXSNGaQ11fsN7/FerD1Y71uQ0KwZgKTooKTQfaFHqNKNegO/xUVPQHf4rdTokKDooJlF0hAaaAegB2oWnoN71t7tEheTodvMmUi5/RmoOqPsDsK8tJP2B2Fbj8jtT5IamUi5/RmnGvQHYUqegOwrcPktQdGJNDPoDUKnoDsK9NqfsDsK20aOQ6NCTQz2A1K09AdiWHoDsW1nRg5lB0ak0M9hxNSz6I7FLWnojsW0YjRriBaK84rRfP5Md0fx/srNGarUEr+ZrxiPMOxCwj7I7FsDtHOGZb+MeC9DRr+j+IeCTRc6gx5rqa4wVNLO5ffDwEnNo9GW9Xo0e6tLc+a8eCzcFokOfGwny5GsJG4bSB7gpNEzlRNJa9pjYLCyPH0cT3gZVY0uA9FVvP8ACZjm6RAc0g6t4IcCCOQdxW+8GuDULsO1zqgEEMjYbQ1oNActpyJXz0do0Q6Ra05lofa/YSxzDStN+73VyWE25Gbq1qadzTN2REXobRS8I4JXsbqo76E3NqBkRur6VhjSGMa20Yd5oKB1gLv1UK2ZEZioZNuZyfSeiMfNKZDhX0AtaK5gE1JPpJ/JYh4O47zR67GiqclI0KTs2jpInHFFE2/LocaPB3HeaSLyeDmO8zkXZ0VyjDRNDi+XQ4v83Md5nJ2fso+bmO8zkXaUUmNE0OL5dDivzbx3mci8/NvHeZydi7YiTLoqixfLocT+bOO8zk/77lB4M4/zOTsXbUUGiqHF8uhxH5s4/wAzk7FB4MY/zORdvRC6LosWcPPBjH+ZyIeDGP8AM5F3BEkXRlFi+XQ4b819IeZSKPmvpDzKRdzRJE0ZRYs4V819IeZSdig8F9IeZSdi7qpUyUXRlFizhJ4L6Q8yk7F5+bGkfMX9i7wimSi6NosWcIPBjSHmMnYvPzY0h5jL2LvKhMlDRtHizg/zY0h5jJ2KDwZ0h5jJ8J8F3pEyUNHUeLOCHgzj/MZPhPgnzbx/mMvwnwXelKZKGjqPFnBPm1j9vEpPgPgvQ4N4+oIwcgLXNc02HIg1G5d5RMkLs6BOaifLoaHoTS+OhiDHYGU0rQFjuTXM0I2iq+2iDi5Mc2aWB7W0fc5zbQOQQ0Cu5bsiKGRvNNpW/C0IiLIyCIiAIiIAiIgCIiAIiIAiIgCIiAIiIAiIgChSiAhSiIAoUogIUoiAhEUoCFKIgIRSiAIiIAiIgCIiAIiIAiIgCIiAIiIAiIgCIiAKFKIAiIgChSiAIiIAoUogCIiAKFKIAiIgIRSiAIiIAiIgCIiAIiIAiIgCIiAIiIAiIgCIiAIiIAiIgCIiAIiIAiIgCIiAIiIAiIgP/9k=;" vertex="1" parent="1">
          <mxGeometry x="480" y="200" width="145.54" height="110" as="geometry" />
        </mxCell>
        <mxCell id="Uw7kk-ShV-zIjp3tt1pE-4" value="Enter" style="ellipse;whiteSpace=wrap;html=1;aspect=fixed;fillColor=#dae8fc;strokeColor=#6c8ebf;verticalAlign=top;labelPosition=center;verticalLabelPosition=bottom;align=center;" vertex="1" parent="1">
          <mxGeometry x="540" y="315" width="20" height="20" as="geometry" />
        </mxCell>
        <mxCell id="Uw7kk-ShV-zIjp3tt1pE-5" value="+" style="ellipse;whiteSpace=wrap;html=1;aspect=fixed;fillColor=#dae8fc;strokeColor=#6c8ebf;verticalAlign=top;labelPosition=center;verticalLabelPosition=bottom;align=center;" vertex="1" parent="1">
          <mxGeometry x="570" y="315" width="20" height="20" as="geometry" />
        </mxCell>
        <mxCell id="Uw7kk-ShV-zIjp3tt1pE-8" value="-" style="ellipse;whiteSpace=wrap;html=1;aspect=fixed;fillColor=#dae8fc;strokeColor=#6c8ebf;verticalAlign=top;labelPosition=center;verticalLabelPosition=bottom;align=center;" vertex="1" parent="1">
          <mxGeometry x="600" y="315" width="20" height="20" as="geometry" />
        </mxCell>
        <mxCell id="Uw7kk-ShV-zIjp3tt1pE-9" value="Reset" style="ellipse;whiteSpace=wrap;html=1;aspect=fixed;fillColor=#dae8fc;strokeColor=#6c8ebf;verticalAlign=top;labelPosition=center;verticalLabelPosition=bottom;align=center;" vertex="1" parent="1">
          <mxGeometry x="500" y="315" width="20" height="20" as="geometry" />
        </mxCell>
        <mxCell id="Uw7kk-ShV-zIjp3tt1pE-10" value="" style="shape=image;verticalLabelPosition=bottom;labelBackgroundColor=default;verticalAlign=top;aspect=fixed;imageAspect=0;image=https://cdn-icons-png.flaticon.com/512/2338/2338764.png;" vertex="1" parent="1">
          <mxGeometry x="700" y="190" width="30" height="30" as="geometry" />
        </mxCell>
        <mxCell id="Uw7kk-ShV-zIjp3tt1pE-11" value="" style="shape=image;verticalLabelPosition=bottom;labelBackgroundColor=default;verticalAlign=top;aspect=fixed;imageAspect=0;image=https://cdn-icons-png.flaticon.com/512/2338/2338764.png;" vertex="1" parent="1">
          <mxGeometry x="700" y="220" width="30" height="30" as="geometry" />
        </mxCell>
        <mxCell id="Uw7kk-ShV-zIjp3tt1pE-12" value="" style="shape=image;verticalLabelPosition=bottom;labelBackgroundColor=default;verticalAlign=top;aspect=fixed;imageAspect=0;image=https://cdn-icons-png.flaticon.com/512/2338/2338764.png;" vertex="1" parent="1">
          <mxGeometry x="700" y="250" width="30" height="30" as="geometry" />
        </mxCell>
        <mxCell id="Uw7kk-ShV-zIjp3tt1pE-13" value="" style="shape=image;verticalLabelPosition=bottom;labelBackgroundColor=default;verticalAlign=top;aspect=fixed;imageAspect=0;image=https://cdn-icons-png.flaticon.com/512/2338/2338764.png;" vertex="1" parent="1">
          <mxGeometry x="700" y="280" width="30" height="30" as="geometry" />
        </mxCell>
        <mxCell id="Uw7kk-ShV-zIjp3tt1pE-14" value="" style="shape=image;verticalLabelPosition=bottom;labelBackgroundColor=default;verticalAlign=top;aspect=fixed;imageAspect=0;image=https://cdn-icons-png.flaticon.com/512/2338/2338764.png;" vertex="1" parent="1">
          <mxGeometry x="700" y="310" width="30" height="30" as="geometry" />
        </mxCell>
        <mxCell id="Uw7kk-ShV-zIjp3tt1pE-15" value="" style="shape=image;verticalLabelPosition=bottom;labelBackgroundColor=default;verticalAlign=top;aspect=fixed;imageAspect=0;image=https://cdn-icons-png.flaticon.com/512/2338/2338764.png;" vertex="1" parent="1">
          <mxGeometry x="700" y="340" width="30" height="30" as="geometry" />
        </mxCell>
        <mxCell id="Uw7kk-ShV-zIjp3tt1pE-16" value="" style="shape=image;verticalLabelPosition=bottom;labelBackgroundColor=default;verticalAlign=top;aspect=fixed;imageAspect=0;image=https://cdn-icons-png.flaticon.com/512/2338/2338764.png;" vertex="1" parent="1">
          <mxGeometry x="700" y="370" width="30" height="30" as="geometry" />
        </mxCell>
        <mxCell id="Uw7kk-ShV-zIjp3tt1pE-17" value="" style="shape=image;verticalLabelPosition=bottom;labelBackgroundColor=default;verticalAlign=top;aspect=fixed;imageAspect=0;image=https://cdn-icons-png.flaticon.com/512/2338/2338764.png;" vertex="1" parent="1">
          <mxGeometry x="700" y="400" width="30" height="30" as="geometry" />
        </mxCell>
        <mxCell id="Uw7kk-ShV-zIjp3tt1pE-21" value="menu ativo" style="shape=image;verticalLabelPosition=bottom;labelBackgroundColor=default;verticalAlign=top;aspect=fixed;imageAspect=0;image=https://cdn-icons-png.flaticon.com/512/2338/2338838.png;" vertex="1" parent="1">
          <mxGeometry x="370" y="200" width="45" height="45" as="geometry" />
        </mxCell>
        <mxCell id="Uw7kk-ShV-zIjp3tt1pE-23" value="iluminaÃ§Ã£o baixa" style="shape=image;verticalLabelPosition=bottom;labelBackgroundColor=default;verticalAlign=top;aspect=fixed;imageAspect=0;image=https://cdn-icons-png.flaticon.com/512/2338/2338838.png;" vertex="1" parent="1">
          <mxGeometry x="370" y="272.5" width="45" height="45" as="geometry" />
        </mxCell>
        <mxCell id="Uw7kk-ShV-zIjp3tt1pE-27" style="edgeStyle=orthogonalEdgeStyle;rounded=0;orthogonalLoop=1;jettySize=auto;html=1;exitX=0.5;exitY=1;exitDx=0;exitDy=0;entryX=0;entryY=0.5;entryDx=0;entryDy=0;shape=link;" edge="1" parent="1" source="Uw7kk-ShV-zIjp3tt1pE-24" target="Uw7kk-ShV-zIjp3tt1pE-3">
          <mxGeometry relative="1" as="geometry" />
        </mxCell>
        <mxCell id="Uw7kk-ShV-zIjp3tt1pE-24" value="" style="image;html=1;image=img/lib/clip_art/general/Plug_128x128.png" vertex="1" parent="1">
          <mxGeometry x="250" y="170" width="80" height="80" as="geometry" />
        </mxCell>
        <mxCell id="Uw7kk-ShV-zIjp3tt1pE-31" style="edgeStyle=orthogonalEdgeStyle;rounded=0;orthogonalLoop=1;jettySize=auto;html=1;exitX=0;exitY=0.5;exitDx=0;exitDy=0;entryX=0.5;entryY=1;entryDx=0;entryDy=0;shape=link;" edge="1" parent="1" source="Uw7kk-ShV-zIjp3tt1pE-29" target="Uw7kk-ShV-zIjp3tt1pE-3">
          <mxGeometry relative="1" as="geometry" />
        </mxCell>
        <mxCell id="Uw7kk-ShV-zIjp3tt1pE-29" value="" style="shape=image;html=1;verticalAlign=top;verticalLabelPosition=bottom;labelBackgroundColor=#ffffff;imageAspect=0;aspect=fixed;image=https://cdn1.iconfinder.com/data/icons/icons-for-a-site-1/64/advantage_creation-128.png" vertex="1" parent="1">
          <mxGeometry x="750" y="420" width="60" height="60" as="geometry" />
        </mxCell>
        <mxCell id="Uw7kk-ShV-zIjp3tt1pE-33" style="edgeStyle=orthogonalEdgeStyle;rounded=0;orthogonalLoop=1;jettySize=auto;html=1;exitX=0;exitY=0.5;exitDx=0;exitDy=0;entryX=0.471;entryY=0.995;entryDx=0;entryDy=0;entryPerimeter=0;shape=link;" edge="1" parent="1" source="Uw7kk-ShV-zIjp3tt1pE-32" target="Uw7kk-ShV-zIjp3tt1pE-3">
          <mxGeometry relative="1" as="geometry" />
        </mxCell>
        <mxCell id="Uw7kk-ShV-zIjp3tt1pE-32" value="" style="shape=image;verticalLabelPosition=bottom;labelBackgroundColor=default;verticalAlign=top;aspect=fixed;imageAspect=0;image=https://www.electronicaembajadores.com/datos/fotos/articulos/grandes/ss/ssld/ssldr34.jpg;" vertex="1" parent="1">
          <mxGeometry x="713.23" y="512" width="96.77" height="72.74" as="geometry" />
        </mxCell>
        <mxCell id="Uw7kk-ShV-zIjp3tt1pE-34" value="buzzer" style="shape=image;html=1;verticalAlign=top;verticalLabelPosition=bottom;labelBackgroundColor=#ffffff;imageAspect=0;aspect=fixed;image=https://cdn4.iconfinder.com/data/icons/essential-app-2/16/volume-sound-speaker-lound-128.png" vertex="1" parent="1">
          <mxGeometry x="377.5" y="360" width="30" height="30" as="geometry" />
        </mxCell>
      </root>
    </mxGraphModel>
  </diagram>
</mxfile>
